<svg width="22" height="22" viewBox="0 0 22 22" fill="none" xmlns="http://www.w3.org/2000/svg">
<path d="M19.0502 10.9996C19.0502 8.75918 18.2699 6.85865 16.7093 5.29801C15.1486 3.73737 13.2481 2.95705 11.0077 2.95705V0.65918C12.4438 0.65918 13.789 0.932052 15.0433 1.4778C16.2976 2.02354 17.389 2.76078 18.3178 3.6895C19.2465 4.61822 19.9837 5.70971 20.5295 6.96397C21.0752 8.21822 21.3481 9.56343 21.3481 10.9996H19.0502ZM14.4545 10.9996C14.4545 10.0422 14.1194 9.22833 13.4492 8.55812C12.7789 7.8879 11.9651 7.5528 11.0077 7.5528V5.25492C12.597 5.25492 13.9518 5.81503 15.072 6.93524C16.1922 8.05546 16.7523 9.41024 16.7523 10.9996H14.4545ZM20.1417 21.34C17.7481 21.34 15.3832 20.8182 13.047 19.7746C10.7109 18.731 8.58532 17.2517 6.67043 15.3368C4.75553 13.4219 3.27628 11.2964 2.23266 8.96024C1.18904 6.62407 0.667236 4.25918 0.667236 1.86556C0.667236 1.52088 0.78213 1.23365 1.01192 1.00386C1.2417 0.774073 1.52894 0.65918 1.87362 0.65918H6.52681C6.7949 0.65918 7.03426 0.750137 7.2449 0.932052C7.45553 1.11397 7.58 1.32939 7.6183 1.57833L8.36511 5.59961C8.40341 5.90599 8.39383 6.1645 8.33639 6.37514C8.27894 6.58578 8.17362 6.76769 8.02043 6.92088L5.23426 9.73577C5.61724 10.4443 6.07202 11.1289 6.59862 11.7895C7.12522 12.4501 7.70447 13.0868 8.33639 13.6996C8.93 14.2932 9.55234 14.8438 10.2034 15.3512C10.8545 15.8586 11.5438 16.323 12.2715 16.7443L14.9715 14.0443C15.1438 13.8719 15.3688 13.7427 15.6465 13.6565C15.9242 13.5703 16.197 13.5464 16.4651 13.5847L20.4289 14.389C20.697 14.4656 20.9172 14.6044 21.0896 14.8055C21.2619 15.0065 21.3481 15.2315 21.3481 15.4805V20.1336C21.3481 20.4783 21.2332 20.7656 21.0034 20.9953C20.7736 21.2251 20.4864 21.34 20.1417 21.34ZM4.14277 7.5528L6.03851 5.65705L5.55021 2.95705H2.99383C3.08958 3.74216 3.22362 4.51769 3.39596 5.28365C3.5683 6.0496 3.81724 6.80599 4.14277 7.5528ZM14.4257 17.8358C15.1726 18.1613 15.9337 18.4198 16.7093 18.6113C17.4848 18.8028 18.2651 18.9273 19.0502 18.9847V16.4571L16.3502 15.9113L14.4257 17.8358Z" fill="#0A0081"/>
</svg>
