<svg width="24" height="24" viewBox="0 0 24 24" fill="none" xmlns="http://www.w3.org/2000/svg">
<path d="M11.9904 5.75962C15.2207 5.75962 17.887 8.42591 17.887 11.6562C17.887 14.9378 15.2207 17.5528 11.9904 17.5528C8.70885 17.5528 6.09383 14.9378 6.09383 11.6562C6.09383 8.42591 8.70885 5.75962 11.9904 5.75962ZM11.9904 15.5018C14.0927 15.5018 15.7848 13.8098 15.7848 11.6562C15.7848 9.55395 14.0927 7.86189 11.9904 7.86189C9.83689 7.86189 8.14483 9.55395 8.14483 11.6562C8.14483 13.8098 9.88817 15.5018 11.9904 15.5018ZM19.4766 5.55452C19.4766 6.32364 18.8613 6.93894 18.0921 6.93894C17.323 6.93894 16.7077 6.32364 16.7077 5.55452C16.7077 4.7854 17.323 4.1701 18.0921 4.1701C18.8613 4.1701 19.4766 4.7854 19.4766 5.55452ZM23.3734 6.93894C23.476 8.83611 23.476 14.5276 23.3734 16.4248C23.2709 18.2707 22.8607 19.8602 21.5275 21.2446C20.1944 22.5777 18.5536 22.9879 16.7077 23.0905C14.8105 23.193 9.11905 23.193 7.22188 23.0905C5.37599 22.9879 3.78647 22.5777 2.40205 21.2446C1.06891 19.8602 0.658707 18.2707 0.556158 16.4248C0.453608 14.5276 0.453608 8.83611 0.556158 6.93894C0.658707 5.09305 1.06891 3.45225 2.40205 2.11911C3.78647 0.785965 5.37599 0.375767 7.22188 0.273218C9.11905 0.170668 14.8105 0.170668 16.7077 0.273218C18.5536 0.375767 20.1944 0.785965 21.5275 2.11911C22.8607 3.45225 23.2709 5.09305 23.3734 6.93894ZM20.9122 18.4245C21.5275 16.9375 21.3737 13.3483 21.3737 11.6562C21.3737 10.0154 21.5275 6.42619 20.9122 4.88795C20.502 3.91373 19.7329 3.09333 18.7587 2.73441C17.2205 2.11911 13.6312 2.27293 11.9904 2.27293C10.2984 2.27293 6.70913 2.11911 5.22216 2.73441C4.19667 3.14461 3.42755 3.91373 3.01735 4.88795C2.40205 6.42619 2.55587 10.0154 2.55587 11.6562C2.55587 13.3483 2.40205 16.9375 3.01735 18.4245C3.42755 19.45 4.19667 20.2191 5.22216 20.6293C6.70913 21.2446 10.2984 21.0908 11.9904 21.0908C13.6312 21.0908 17.2205 21.2446 18.7587 20.6293C19.7329 20.2191 20.5533 19.45 20.9122 18.4245Z" fill="#0A0081"/>
</svg>
