<svg width="24" height="20" viewBox="0 0 24 20" fill="none" xmlns="http://www.w3.org/2000/svg">
<path d="M2.40781 19.2C1.74781 19.2 1.18281 18.965 0.712812 18.495C0.242812 18.025 0.0078125 17.46 0.0078125 16.8V2.4C0.0078125 1.74 0.242812 1.175 0.712812 0.705C1.18281 0.235 1.74781 0 2.40781 0H21.6078C22.2678 0 22.8328 0.235 23.3028 0.705C23.7728 1.175 24.0078 1.74 24.0078 2.4V16.8C24.0078 17.46 23.7728 18.025 23.3028 18.495C22.8328 18.965 22.2678 19.2 21.6078 19.2H2.40781ZM12.0078 10.8L2.40781 4.8V16.8H21.6078V4.8L12.0078 10.8ZM12.0078 8.4L21.6078 2.4H2.40781L12.0078 8.4ZM2.40781 4.8V2.4V16.8V4.8Z" fill="#0A0081"/>
</svg>
