<svg width="36" height="36" viewBox="0 0 36 36" fill="none" xmlns="http://www.w3.org/2000/svg">
<path d="M19.9125 26.25H23.5125V26.1375L17.325 19.575L17.3625 19.4625H17.7375C19.0875 19.4625 20.2063 19.05 21.0938 18.225C21.9813 17.4 22.525 16.4375 22.725 15.3375H24.225V13.575H22.6875C22.6125 13.2 22.4813 12.8438 22.2938 12.5063C22.1063 12.1688 21.875 11.8375 21.6 11.5125H24.225V9.75H11.775V11.8875H17.625C18.275 11.8875 18.8063 12.05 19.2188 12.375C19.6313 12.7 19.9125 13.1 20.0625 13.575H11.775V15.3375H20.1C19.95 15.8375 19.6625 16.2688 19.2375 16.6313C18.8125 16.9938 18.2375 17.175 17.5125 17.175H13.7625V19.575L19.9125 26.25ZM18 33C15.925 33 13.975 32.6063 12.15 31.8188C10.325 31.0313 8.7375 29.9625 7.3875 28.6125C6.0375 27.2625 4.96875 25.675 4.18125 23.85C3.39375 22.025 3 20.075 3 18C3 15.925 3.39375 13.975 4.18125 12.15C4.96875 10.325 6.0375 8.7375 7.3875 7.3875C8.7375 6.0375 10.325 4.96875 12.15 4.18125C13.975 3.39375 15.925 3 18 3C20.075 3 22.025 3.39375 23.85 4.18125C25.675 4.96875 27.2625 6.0375 28.6125 7.3875C29.9625 8.7375 31.0313 10.325 31.8188 12.15C32.6063 13.975 33 15.925 33 18C33 20.075 32.6063 22.025 31.8188 23.85C31.0313 25.675 29.9625 27.2625 28.6125 28.6125C27.2625 29.9625 25.675 31.0313 23.85 31.8188C22.025 32.6063 20.075 33 18 33ZM18 30C21.35 30 24.1875 28.8375 26.5125 26.5125C28.8375 24.1875 30 21.35 30 18C30 14.65 28.8375 11.8125 26.5125 9.4875C24.1875 7.1625 21.35 6 18 6C14.65 6 11.8125 7.1625 9.4875 9.4875C7.1625 11.8125 6 14.65 6 18C6 21.35 7.1625 24.1875 9.4875 26.5125C11.8125 28.8375 14.65 30 18 30Z" fill="url(#paint0_linear_1_275)"/>
<defs>
<linearGradient id="paint0_linear_1_275" x1="33" y1="3.08035" x2="3" y2="32.9196" gradientUnits="userSpaceOnUse">
<stop stop-color="#A68443"/>
<stop offset="0.279861" stop-color="#FFD583"/>
<stop offset="0.965" stop-color="#CFA95E"/>
</linearGradient>
</defs>
</svg>
