<svg width="36" height="36" viewBox="0 0 36 36" fill="none" xmlns="http://www.w3.org/2000/svg">
<path d="M24 33C21.5 33 19.375 32.125 17.625 30.375C15.875 28.625 15 26.5 15 24C15 21.5 15.875 19.375 17.625 17.625C19.375 15.875 21.5 15 24 15C26.5 15 28.625 15.875 30.375 17.625C32.125 19.375 33 21.5 33 24C33 26.5 32.125 28.625 30.375 30.375C28.625 32.125 26.5 33 24 33ZM24 30C25.65 30 27.0625 29.4125 28.2375 28.2375C29.4125 27.0625 30 25.65 30 24C30 22.35 29.4125 20.9375 28.2375 19.7625C27.0625 18.5875 25.65 18 24 18C22.35 18 20.9375 18.5875 19.7625 19.7625C18.5875 20.9375 18 22.35 18 24C18 25.65 18.5875 27.0625 19.7625 28.2375C20.9375 29.4125 22.35 30 24 30ZM6 30C5.175 30 4.46875 29.7063 3.88125 29.1188C3.29375 28.5313 3 27.825 3 27V15.6C3 15.4 3.01875 15.2 3.05625 15C3.09375 14.8 3.15 14.6 3.225 14.4L6.225 7.5H6C5.575 7.5 5.21875 7.35625 4.93125 7.06875C4.64375 6.78125 4.5 6.425 4.5 6V4.5C4.5 4.075 4.64375 3.71875 4.93125 3.43125C5.21875 3.14375 5.575 3 6 3H16.5C16.925 3 17.2813 3.14375 17.5688 3.43125C17.8563 3.71875 18 4.075 18 4.5V6C18 6.425 17.8563 6.78125 17.5688 7.06875C17.2813 7.35625 16.925 7.5 16.5 7.5H16.275L18.75 13.2C18.275 13.45 17.825 13.7125 17.4 13.9875C16.975 14.2625 16.575 14.575 16.2 14.925L13.05 7.5H9.45L6 15.6V27H12.375C12.5 27.525 12.6688 28.0438 12.8813 28.5563C13.0938 29.0688 13.35 29.55 13.65 30H6ZM24 13.5C22.95 13.5 22.0625 13.1375 21.3375 12.4125C20.6125 11.6875 20.25 10.8 20.25 9.75C20.25 8.7 20.6125 7.8125 21.3375 7.0875C22.0625 6.3625 22.95 6 24 6V13.5C24 12.45 24.3625 11.5625 25.0875 10.8375C25.8125 10.1125 26.7 9.75 27.75 9.75C28.8 9.75 29.6875 10.1125 30.4125 10.8375C31.1375 11.5625 31.5 12.45 31.5 13.5H24Z" fill="url(#paint0_linear_1_267)"/>
<defs>
<linearGradient id="paint0_linear_1_267" x1="33" y1="3.08035" x2="3" y2="32.9196" gradientUnits="userSpaceOnUse">
<stop stop-color="#A68443"/>
<stop offset="0.279861" stop-color="#FFD583"/>
<stop offset="0.965" stop-color="#CFA95E"/>
</linearGradient>
</defs>
</svg>
