<svg width="26" height="26" viewBox="0 0 26 26" fill="none" xmlns="http://www.w3.org/2000/svg">
<path fill-rule="evenodd" clip-rule="evenodd" d="M25.2819 12.6841C25.2819 19.287 19.8872 24.6409 13.2325 24.6409C11.1196 24.6409 9.13375 24.1016 7.40712 23.1537L0.735107 25.2741L2.90974 18.8588C1.81255 17.0568 1.18065 14.9427 1.18065 12.6841C1.18065 6.07998 6.57528 0.726074 13.2312 0.726074C19.8872 0.726074 25.2806 6.07998 25.2806 12.6841H25.2819ZM13.2325 2.63042C7.64532 2.63042 3.10104 7.13891 3.10104 12.6841C3.10104 14.8822 3.81687 16.9198 5.03008 18.5786L3.76504 22.312L7.65766 21.0753C9.25717 22.1244 11.1739 22.7378 13.2325 22.7378C18.8184 22.7378 23.3627 18.2281 23.3627 12.6853C23.3627 7.14261 18.8172 2.63166 13.2325 2.63166V2.63042ZM19.317 15.4376C19.243 15.3154 19.0455 15.2413 18.7505 15.0957C18.4556 14.9488 17.0017 14.2392 16.7314 14.1429C16.4611 14.0454 16.2624 13.9961 16.0674 14.2886C15.8699 14.5823 15.3047 15.2426 15.1307 15.4376C14.9591 15.6338 14.7876 15.6573 14.4914 15.5104C14.1952 15.3648 13.2436 15.0538 12.1155 14.0565C11.238 13.279 10.6456 12.32 10.4716 12.0263C10.3001 11.7338 10.4543 11.5746 10.6012 11.4289C10.7345 11.2969 10.8974 11.0871 11.0443 10.9168C11.1924 10.7452 11.2417 10.6218 11.3392 10.4268C11.438 10.2305 11.3886 10.0602 11.3146 9.9146C11.2417 9.76773 10.6506 8.3262 10.4037 7.73872C10.1594 7.15249 9.91252 7.1747 9.73974 7.1747C9.56695 7.1747 9.24853 7.2253 9.24853 7.2253C9.24853 7.2253 8.65612 7.29812 8.38583 7.59186C8.11555 7.88436 7.35282 8.59402 7.35282 10.0355C7.35282 11.4771 8.41052 12.8717 8.55738 13.0667C8.70549 13.2629 10.6 16.3188 13.604 17.4925C16.6068 18.6662 16.6068 18.2737 17.1486 18.2244C17.6891 18.1762 18.8962 17.516 19.1418 16.831C19.3886 16.146 19.3886 15.5598 19.3146 15.4376H19.317Z" fill="#0A0081"/>
</svg>
