<svg width="29" height="21" viewBox="0 0 29 21" fill="none" xmlns="http://www.w3.org/2000/svg">
<path d="M27.6508 3.93922C28.2661 6.09276 28.2661 10.7075 28.2661 10.7075C28.2661 10.7075 28.2661 15.2709 27.6508 17.4758C27.3432 18.7064 26.369 19.6293 25.1896 19.937C22.9848 20.501 14.2681 20.501 14.2681 20.501C14.2681 20.501 5.50013 20.501 3.29531 19.937C2.11599 19.6293 1.14177 18.7064 0.834121 17.4758C0.218823 15.2709 0.218823 10.7075 0.218823 10.7075C0.218823 10.7075 0.218823 6.09276 0.834121 3.93922C1.14177 2.70863 2.11599 1.73441 3.29531 1.42676C5.50013 0.811461 14.2681 0.811461 14.2681 0.811461C14.2681 0.811461 22.9848 0.811461 25.1896 1.42676C26.369 1.73441 27.3432 2.70863 27.6508 3.93922ZM11.3967 14.8608L18.6777 10.7075L11.3967 6.55424V14.8608Z" fill="#0A0081"/>
</svg>
